<?xml version="1.0" encoding="UTF-8" standalone="no"?>
<svg
   xmlns:dc="http://purl.org/dc/elements/1.1/"
   xmlns:cc="http://creativecommons.org/ns#"
   xmlns:rdf="http://www.w3.org/1999/02/22-rdf-syntax-ns#"
   xmlns:svg="http://www.w3.org/2000/svg"
   xmlns="http://www.w3.org/2000/svg"
   xmlns:xlink="http://www.w3.org/1999/xlink"
   xmlns:sodipodi="http://sodipodi.sourceforge.net/DTD/sodipodi-0.dtd"
   xmlns:inkscape="http://www.inkscape.org/namespaces/inkscape"
   version="1.1"
   width="48"
   height="48"
   id="svg2"
   inkscape:version="0.91 r13725"
   sodipodi:docname="smiling_smiley_yellow_simple.svg">
  <sodipodi:namedview
     pagecolor="#ffffff"
     bordercolor="#666666"
     borderopacity="1"
     objecttolerance="10"
     gridtolerance="10"
     guidetolerance="10"
     inkscape:pageopacity="0"
     inkscape:pageshadow="2"
     inkscape:window-width="640"
     inkscape:window-height="480"
     id="namedview45"
     showgrid="false"
     inkscape:current-layer="svg2" />
  <defs
     id="defs4">
    <linearGradient
       id="lg1">
      <stop
         offset="0"
         style="stop-color:#fffcde;stop-opacity:1"
         id="stop7" />
      <stop
         offset="0.64485979"
         style="stop-color:#f6e76a;stop-opacity:1"
         id="stop9" />
      <stop
         offset="1"
         style="stop-color:#ffb738;stop-opacity:1"
         id="stop11" />
    </linearGradient>
    <radialGradient
       cx="29.288071"
       cy="15.720984"
       r="8.9020796"
       fx="29.158466"
       fy="15.755712"
       id="rg1"
       xlink:href="#lg1"
       gradientUnits="userSpaceOnUse" />
    <radialGradient
       cx="25.0527"
       cy="39.5928"
       r="15.7572"
       fx="25.0527"
       fy="39.5928"
       id="rg2"
       gradientUnits="userSpaceOnUse"
       gradientTransform="matrix(1.25,0,0,1.25,-6.479446,-13.37211)">
      <stop
         offset="0"
         style="stop-color:#777;stop-opacity:1"
         id="stop15" />
      <stop
         offset="1"
         style="stop-color:#000;stop-opacity:1"
         id="stop17" />
    </radialGradient>
    <linearGradient
       id="lg2">
      <stop
         offset="0"
         style="stop-color:#000;stop-opacity:1"
         id="stop20" />
      <stop
         offset="1"
         style="stop-color:#000;stop-opacity:0"
         id="stop22" />
    </linearGradient>
    <radialGradient
       cx="24.714285"
       cy="38.57143"
       r="19.714285"
       fx="24.714285"
       fy="38.57143"
       id="rg3"
       xlink:href="#lg2"
       gradientUnits="userSpaceOnUse"
       gradientTransform="matrix(1,0,0,0.333333,0,25.71429)" />
  </defs>
  <metadata
     id="metadata25">
    <rdf:RDF>
      <cc:Work
         rdf:about="">
        <dc:format>image/svg+xml</dc:format>
        <dc:type
           rdf:resource="http://purl.org/dc/dcmitype/StillImage" />
        <dc:subject>
          <rdf:Bag>
            <rdf:li>emoticon</rdf:li>
            <rdf:li>emote</rdf:li>
            <rdf:li>smiley</rdf:li>
            <rdf:li>happy</rdf:li>
            <rdf:li>:)</rdf:li>
            <rdf:li>:-)</rdf:li>
          </rdf:Bag>
        </dc:subject>
        <cc:license
           rdf:resource="http://creativecommons.org/licenses/by-sa/2.0/" />
        <dc:creator>
          <cc:Agent>
            <dc:title>Jakub Steiner</dc:title>
          </cc:Agent>
        </dc:creator>
        <dc:source>http://jimmac.musichall.cz</dc:source>
        <dc:title></dc:title>
      </cc:Work>
      <cc:License
         rdf:about="http://creativecommons.org/licenses/by-sa/2.0/">
        <cc:permits
           rdf:resource="http://web.resource.org/cc/Reproduction" />
        <cc:permits
           rdf:resource="http://web.resource.org/cc/Distribution" />
        <cc:requires
           rdf:resource="http://web.resource.org/cc/Notice" />
        <cc:requires
           rdf:resource="http://web.resource.org/cc/Attribution" />
        <cc:permits
           rdf:resource="http://web.resource.org/cc/DerivativeWorks" />
        <cc:requires
           rdf:resource="http://web.resource.org/cc/ShareAlike" />
      </cc:License>
    </rdf:RDF>
  </metadata>
  <path
     d="m39.774755 19.008621c0 4.783923-3.878135 8.662058-8.662057 8.662058-4.783923 0-8.662058-3.878135-8.662058-8.662058 0-4.783922 3.878135-8.662058 8.662058-8.662058 4.783922 0 8.662057 3.878136 8.662057 8.662058z"
     transform="matrix(2.083142,0,0,2.083142,-40.54715,-16.49224)"
     style="color:#000;fill-rule:evenodd;fill:#ffff00;overflow:visible;stroke-linecap:round;stroke-linejoin:round;stroke-width:0.48004409;stroke:#000000;stroke-miterlimit:4;stroke-dasharray:none;fill-opacity:1;stroke-opacity:1"
     id="path29" />
  <path
     d="m39.774755 19.008621c0 4.783923-3.878135 8.662058-8.662057 8.662058-4.783923 0-8.662058-3.878135-8.662058-8.662058 0-4.783922 3.878135-8.662058 8.662058-8.662058 4.783922 0 8.662057 3.878136 8.662057 8.662058z"
     transform="matrix(1.979782,0,0,1.979782,-37.33128,-14.52746)"
     style="color:#000;fill:none;opacity:0.67721522;overflow:visible;stroke-linecap:round;stroke-linejoin:round;stroke-width:0;stroke:#fff;fill-opacity:1;stroke-miterlimit:4;stroke-dasharray:none"
     id="path31" />
  <path
     d="m37.284637 24.719966c-3.016467 5.224673-6.543503 8.990039-12.822145 8.990039-6.100017 0-10.565537-4.339697-13.352476-9.166816 2.549413 3.05592 6.282932 6.566312 13.087311 6.566312 8.130204 0 9.551776-2.906855 13.08731-6.389535z"
     style="color:#000;fill:#fff;opacity:0.36;overflow:visible"
     id="path33" />
  <path
     d="m37.284637 24.012862c-3.016467 5.224673-6.543503 8.990039-12.822145 8.990039-6.100017 0-10.565537-4.339697-13.352476-9.166816 2.549413 3.05592 6.282932 6.566312 13.087311 6.566312 8.130204 0 9.551776-2.906855 13.08731-6.389535z"
     fill="url(#rg2)"
     id="path35"
     style="fill:#000000;fill-opacity:1;stroke:none" />
  <path
     d="m21.751711 17.714134c0 2.5-1.125 4.5-2.5 4.5-1.375 0-2.625-2-2.625-4.5 0-2.5 1.125-4.5 2.5-4.5 1.375 0 2.5 2 2.5 4.5l0.125 0zM31.042065 17.714134"
     style="fill:#fff;opacity:0.36"
     id="path37" />
  <path
     d="m31.042065 17.714134c0 2.5-1.125 4.5-2.5 4.5-1.375 0-2.5-2-2.5-4.5 0-2.5 1.125-4.5 2.5-4.5 1.375 0 2.5 2 2.5 4.5z"
     style="fill:#fff;opacity:0.36"
     id="path39" />
  <path
     d="m21.751711 17.089134c0 2.5-1.125 4.5-2.5 4.5-1.375 0-2.5-2-2.5-4.5 0-2.5 1.125-4.5 2.5-4.5 1.375 0 2.5 2 2.5 4.5zM31.042065 17.089134"
     fill="#000"
     id="path41" />
  <path
     d="m31.042065 17.089134c0 2.5-1.125 4.5-2.5 4.5-1.375 0-2.5-2-2.5-4.5 0-2.5 1.125-4.5 2.5-4.5 1.375 0 2.5 2 2.5 4.5z"
     fill="#000"
     id="path43" />
</svg>
